<svg width="16" height="16" viewBox="0 0 16 16" fill="none" xmlns="http://www.w3.org/2000/svg">
<path d="M8.95264 9.00408V7.00409H6.97141V9.00408H8.95264Z" fill="#ED342B"/>
<path d="M6.96436 0.0304291V5.03043C5.82364 5.03043 4.92309 5.96982 4.92309 7.09103V8.90922C4.92309 10.0607 5.82364 10.9698 6.96436 10.9698V15.9698C3.12196 15.9698 0 12.8183 0 8.93953V7.03042C0 3.15163 3.12196 0.000126081 6.96436 0.0304291Z" fill="#ED342B"/>
<path d="M8.97559 0.0302956V5.0303C10.1463 5.0303 11.1069 5.99999 11.1069 7.18181V11H9.0056V16H16V6.15151C16 2.75757 13.2683 0 9.90616 0H8.97559V0.0302956Z" fill="#ED342B"/>
</svg>
