<svg width="16" height="16" viewBox="0 0 16 16" fill="none" xmlns="http://www.w3.org/2000/svg">
<path d="M8.95264 9.00402V7.00403H6.97141V9.00402H8.95264Z" fill="#03435F"/>
<path d="M6.96436 0.0304902V5.03049C5.82364 5.03049 4.92309 5.96988 4.92309 7.09109V8.90928C4.92309 10.0608 5.82364 10.9699 6.96436 10.9699V15.9699C3.12196 15.9699 0 12.8184 0 8.93959V7.03048C0 3.1517 3.12196 0.000187116 6.96436 0.0304902Z" fill="#ED342B"/>
<path d="M8.97562 0.0302956V5.0303C10.1463 5.0303 11.1069 5.99999 11.1069 7.18181V11H9.00563V16H16V6.15151C16 2.75757 13.2683 0 9.90619 0H8.97562V0.0302956Z" fill="#ED342B"/>
</svg>
