<svg width="168" height="168" viewBox="0 0 168 168" fill="none" xmlns="http://www.w3.org/2000/svg">
<g clip-path="url(#clip0)">
<path fill-rule="evenodd" clip-rule="evenodd" d="M92.4 134.4C96.8556 134.4 101.129 136.17 104.279 139.321C107.43 142.471 109.2 146.744 109.2 151.2C109.2 155.656 107.43 159.929 104.279 163.079C101.129 166.23 96.8556 168 92.4 168C87.9444 168 83.6712 166.23 80.5206 163.079C77.37 159.929 75.6 155.656 75.6 151.2C75.6 146.744 77.37 142.471 80.5206 139.321C83.6712 136.17 87.9444 134.4 92.4 134.4ZM39.8244 109.2C45.3939 109.2 50.7354 111.412 54.6736 115.351C58.6119 119.289 60.8244 124.63 60.8244 130.2C60.8244 135.77 58.6119 141.111 54.6736 145.049C50.7354 148.988 45.3939 151.2 39.8244 151.2C34.2549 151.2 28.9134 148.988 24.9752 145.049C21.0369 141.111 18.8244 135.77 18.8244 130.2C18.8244 124.63 21.0369 119.289 24.9752 115.351C28.9134 111.412 34.2549 109.2 39.8244 109.2ZM137.08 113.4C141.535 113.4 145.808 115.17 148.959 118.321C152.11 121.471 153.88 125.744 153.88 130.2C153.88 134.656 152.11 138.929 148.959 142.079C145.808 145.23 141.535 147 137.08 147C132.624 147 128.351 145.23 125.2 142.079C122.05 138.929 120.28 134.656 120.28 130.2C120.28 125.744 122.05 121.471 125.2 118.321C128.351 115.17 132.624 113.4 137.08 113.4ZM155.4 78.2796C158.742 78.2796 161.947 79.6071 164.31 81.9701C166.672 84.333 168 87.5379 168 90.8796C168 94.2213 166.672 97.4262 164.31 99.7891C161.947 102.152 158.742 103.48 155.4 103.48C152.058 103.48 148.853 102.152 146.49 99.7891C144.128 97.4262 142.8 94.2213 142.8 90.8796C142.8 87.5379 144.128 84.333 146.49 81.9701C148.853 79.6071 152.058 78.2796 155.4 78.2796ZM21 50.4C26.5695 50.4 31.911 52.6125 35.8492 56.5508C39.7875 60.489 42 65.8305 42 71.4C42 76.9695 39.7875 82.311 35.8492 86.2492C31.911 90.1875 26.5695 92.4 21 92.4C15.4305 92.4 10.089 90.1875 6.15076 86.2492C2.21249 82.311 0 76.9695 0 71.4C0 65.8305 2.21249 60.489 6.15076 56.5508C10.089 52.6125 15.4305 50.4 21 50.4ZM149.402 43.7388C151.63 43.7388 153.767 44.6238 155.342 46.1991C156.917 47.7744 157.802 49.911 157.802 52.1388C157.802 54.3666 156.917 56.5032 155.342 58.0785C153.767 59.6538 151.63 60.5388 149.402 60.5388C147.175 60.5388 145.038 59.6538 143.463 58.0785C141.887 56.5032 141.002 54.3666 141.002 52.1388C141.002 49.911 141.887 47.7744 143.463 46.1991C145.038 44.6238 147.175 43.7388 149.402 43.7388ZM67.2 0C73.8835 0 80.2932 2.65499 85.0191 7.38091C89.745 12.1068 92.4 18.5165 92.4 25.2C92.4 31.8835 89.745 38.2932 85.0191 43.0191C80.2932 47.745 73.8835 50.4 67.2 50.4C60.5165 50.4 54.1068 47.745 49.3809 43.0191C44.655 38.2932 42 31.8835 42 25.2C42 18.5165 44.655 12.1068 49.3809 7.38091C54.1068 2.65499 60.5165 0 67.2 0V0ZM130.2 25.2C131.314 25.2 132.382 25.6425 133.17 26.4302C133.958 27.2178 134.4 28.2861 134.4 29.4C134.4 30.5139 133.958 31.5822 133.17 32.3698C132.382 33.1575 131.314 33.6 130.2 33.6C129.086 33.6 128.018 33.1575 127.23 32.3698C126.442 31.5822 126 30.5139 126 29.4C126 28.2861 126.442 27.2178 127.23 26.4302C128.018 25.6425 129.086 25.2 130.2 25.2Z" fill="#E8E8E8"/>
</g>
<defs>
<clipPath id="clip0">
<rect width="168" height="168" fill="white"/>
</clipPath>
</defs>
</svg>
