<svg width="163" height="36" viewBox="0 0 163 36" fill="none" xmlns="http://www.w3.org/2000/svg">
<path d="M121.202 17.9386V15.4256H118.689V17.9386H121.202Z" fill="#ED342B"/>
<path d="M118.681 6.66336V12.9458C117.234 12.9458 116.091 14.1261 116.091 15.5349V17.8194C116.091 19.2663 117.234 20.4085 118.681 20.4085V26.6909C113.807 26.6909 109.847 22.7311 109.847 17.8575V15.4587C109.847 10.5851 113.807 6.62528 118.681 6.66336Z" fill="#ED342B"/>
<path d="M121.232 6.66316V12.9456C122.717 12.9456 123.935 14.164 123.935 15.6489V20.4464H121.27V26.7288H130.141V14.3544C130.141 10.0899 126.676 6.62509 122.412 6.62509H121.232V6.66316Z" fill="#ED342B"/>
<path d="M17.6669 22.6167H9.13805L8.79538 23.6828C8.26233 25.3581 6.73932 26.5003 4.98786 26.5003H0L10.0519 0H16.6769L26.7288 26.5003H21.741C19.9895 26.5003 18.4284 25.3581 17.9334 23.6828L17.6669 22.6167ZM15.9916 17.2862L13.3644 8.90961L10.7372 17.2862H15.9916Z" fill="#03435F"/>
<path d="M49.6501 16.6388C49.6501 24.2158 44.015 26.7288 40.8547 26.7288C38.1514 26.7288 36.8188 25.5104 36.3619 24.9012V35.7907H32.8209C30.9171 35.7907 29.356 34.2296 29.356 32.3258V6.77735H36.3619V8.49074C36.7045 8.14806 38.3798 6.58698 40.969 6.58698C44.0531 6.58698 49.6501 9.25225 49.6501 16.6388ZM42.8727 16.6388C42.8727 13.4405 41.1974 12.184 39.3317 12.184C37.3899 12.184 36.0573 13.7451 36.0573 16.6388C36.0573 19.7229 37.3899 21.1317 39.3317 21.1317C41.1974 21.1317 42.8727 19.8372 42.8727 16.6388Z" fill="#03435F"/>
<path d="M72.7237 16.6388C72.7237 24.2158 67.0885 26.7288 63.9283 26.7288C61.2249 26.7288 59.8923 25.5104 59.4354 24.9012V35.7907H55.8944C53.9906 35.7907 52.4296 34.2296 52.4296 32.3258V6.77735H59.4354V8.49074C59.7781 8.14806 61.4534 6.58698 64.0425 6.58698C67.0885 6.58698 72.7237 9.25225 72.7237 16.6388ZM65.9463 16.6388C65.9463 13.4405 64.271 12.184 62.4053 12.184C60.4634 12.184 59.1308 13.7451 59.1308 16.6388C59.1308 19.7229 60.4634 21.1317 62.4053 21.1317C64.271 21.1317 65.9463 19.8372 65.9463 16.6388Z" fill="#03435F"/>
<path d="M107.144 15.2301V26.4622H100.138V15.3443C100.138 13.2501 98.9194 12.3363 97.6629 12.3363C95.4926 12.3363 94.7692 14.3543 94.7692 14.7351V26.4622H87.7634V15.3443C87.7634 13.2501 86.5069 12.3363 85.2885 12.3363C83.1943 12.3363 82.3948 14.0878 82.3948 15.192V26.4622H75.3889V6.77735H82.3948V10.2422C83.004 8.90958 84.6412 6.58698 88.0299 6.58698C90.7713 6.58698 92.9797 7.69116 94.0838 10.4707C94.9596 8.64304 97.3583 6.58698 100.29 6.58698C104.098 6.58698 107.144 8.98572 107.144 15.2301Z" fill="#03435F"/>
<path d="M147.008 6.73933V12.8694C146.133 12.8314 145.942 12.8314 145.714 12.8314C141.716 12.8314 140.155 14.2782 139.812 16.4866V26.4623H136.842C134.634 26.4623 132.806 24.6728 132.806 22.4263V6.73933H139.812V10.7372C140.345 8.18618 142.021 6.54895 145.181 6.54895C145.6 6.58703 146.133 6.58703 147.008 6.73933Z" fill="#03435F"/>
<path d="M163 21.0937V26.0435C162.162 26.3861 160.754 26.6907 159.154 26.6907C155.042 26.6907 151.844 25.6246 151.844 19.9133V12.1841H148.493V6.77738H151.844V1.86569H158.85V6.77738H162.924V12.1841H158.85V19.1138C158.85 20.4083 159.383 21.3221 161.096 21.3221C161.515 21.3221 162.162 21.246 163 21.0937Z" fill="#03435F"/>
</svg>
