<svg width="249" height="56" viewBox="0 0 249 56" fill="none" xmlns="http://www.w3.org/2000/svg">
<path d="M185.031 28.2781V24.4417H181.195V28.2781H185.031Z" fill="#ED342B"/>
<path d="M181.181 11.0647V20.6556C178.973 20.6556 177.229 22.4576 177.229 24.6083V28.0959C177.229 30.3047 178.973 32.0485 181.181 32.0485V41.6394C173.741 41.6394 167.696 35.5943 167.696 28.154V24.492C167.696 17.0518 173.741 11.0066 181.181 11.0647Z" fill="#ED342B"/>
<path d="M185.076 11.0647V20.6557C187.343 20.6557 189.203 22.5157 189.203 24.7827V32.1067H185.134V41.6976H198.678V22.8064C198.678 16.2961 193.388 11.0066 186.878 11.0066H185.076V11.0647Z" fill="#ED342B"/>
<path d="M26.9709 35.4199H13.9505L13.4273 37.0475C12.6135 39.605 10.2885 41.3488 7.61463 41.3488H0L15.3455 0.892517H25.4596L40.8051 41.3488H33.1905C30.5166 41.3488 28.1334 39.605 27.3778 37.0475L26.9709 35.4199ZM24.4133 27.2821L20.4025 14.4942L16.3918 27.2821H24.4133Z" fill="white"/>
<path d="M75.7976 26.294C75.7976 37.8612 67.1948 41.6976 62.3702 41.6976C58.2432 41.6976 56.2088 39.8376 55.5113 38.9075V55.5318H50.1055C47.1991 55.5318 44.8159 53.1486 44.8159 50.2423V11.2391H55.5113V13.8548C56.0344 13.3317 58.592 10.9485 62.5446 10.9485C67.2529 10.9485 75.7976 15.0174 75.7976 26.294ZM65.451 26.294C65.451 21.4113 62.8934 19.4931 60.0452 19.4931C57.0807 19.4931 55.0463 21.8763 55.0463 26.294C55.0463 31.0023 57.0807 33.1529 60.0452 33.1529C62.8934 33.1529 65.451 31.1766 65.451 26.294Z" fill="white"/>
<path d="M111.022 26.294C111.022 37.8612 102.42 41.6976 97.5951 41.6976C93.4681 41.6976 91.4336 39.8376 90.7361 38.9075V55.5318H85.3303C82.424 55.5318 80.0408 53.1486 80.0408 50.2423V11.2391H90.7361V13.8548C91.2592 13.3317 93.8168 10.9485 97.7695 10.9485C102.42 10.9485 111.022 15.0174 111.022 26.294ZM100.676 26.294C100.676 21.4113 98.1182 19.4931 95.27 19.4931C92.3056 19.4931 90.2711 21.8763 90.2711 26.294C90.2711 31.0023 92.3056 33.1529 95.27 33.1529C98.1182 33.1529 100.676 31.1766 100.676 26.294Z" fill="white"/>
<path d="M163.569 24.1433V41.2907H152.874V24.3177C152.874 21.1207 151.014 19.7256 149.096 19.7256C145.782 19.7256 144.678 22.8064 144.678 23.3876V41.2907H133.983V24.3177C133.983 21.1207 132.064 19.7256 130.204 19.7256C127.007 19.7256 125.787 22.3995 125.787 24.0852V41.2907H115.091V11.2391H125.787V16.5287C126.717 14.4942 129.216 10.9485 134.389 10.9485C138.575 10.9485 141.946 12.6342 143.632 16.8774C144.969 14.0873 148.631 10.9485 153.106 10.9485C158.919 10.9485 163.569 14.6105 163.569 24.1433Z" fill="white"/>
<path d="M224.428 11.181V20.5394C223.091 20.4813 222.8 20.4813 222.452 20.4813C216.348 20.4813 213.965 22.6901 213.442 26.0615V41.2907H208.908C205.537 41.2907 202.747 38.5588 202.747 35.1293V11.181H213.442V17.2843C214.256 13.3898 216.813 10.8904 221.638 10.8904C222.277 10.9485 223.091 10.9485 224.428 11.181Z" fill="white"/>
<path d="M248.841 33.0948V40.6513C247.562 41.1745 245.412 41.6395 242.97 41.6395C236.693 41.6395 231.81 40.0119 231.81 31.2929V19.4931H226.695V11.2391H231.81V3.74075H242.505V11.2391H248.725V19.4931H242.505V30.0722C242.505 32.0485 243.319 33.4436 245.935 33.4436C246.574 33.4436 247.562 33.3273 248.841 33.0948Z" fill="white"/>
</svg>
