<svg width="24" height="16" viewBox="0 0 24 16" fill="none" xmlns="http://www.w3.org/2000/svg">
<path d="M22.24 6.4H1.76005C0.876849 6.4 0.800049 7.1152 0.800049 8C0.800049 8.8848 0.876849 9.6 1.76005 9.6H22.24C23.1232 9.6 23.2 8.8848 23.2 8C23.2 7.1152 23.1232 6.4 22.24 6.4ZM22.24 12.8H1.76005C0.876849 12.8 0.800049 13.5152 0.800049 14.4C0.800049 15.2848 0.876849 16 1.76005 16H22.24C23.1232 16 23.2 15.2848 23.2 14.4C23.2 13.5152 23.1232 12.8 22.24 12.8ZM1.76005 3.2H22.24C23.1232 3.2 23.2 2.4848 23.2 1.6C23.2 0.7152 23.1232 0 22.24 0H1.76005C0.876849 0 0.800049 0.7152 0.800049 1.6C0.800049 2.4848 0.876849 3.2 1.76005 3.2Z" fill="#03435F"/>
</svg>
